<svg xmlns="http://www.w3.org/2000/svg" xmlns:xlink="http://www.w3.org/1999/xlink" viewBox="0 0 430 430" width="430" height="430" preserveAspectRatio="xMidYMid meet" style="width: 100%; height: 100%; transform: translate3d(0px, 0px, 0px); content-visibility: visible;"><defs><clipPath id="__lottie_element_2"><rect width="430" height="430" x="0" y="0"/></clipPath><clipPath id="__lottie_element_4"><path d="M0,0 L430,0 L430,430 L0,430z"/></clipPath><g id="__lottie_element_14"><g transform="matrix(-0.8999999761581421,0,0,-0.8999999761581421,215,215)" opacity="1" style="display: block;"><path fill="rgb(58,51,71)" fill-opacity="1" d=" M0,-118.33300018310547 C65.35399627685547,-118.33300018310547 118.33300018310547,-65.35399627685547 118.33300018310547,0 C118.33300018310547,65.35399627685547 65.35399627685547,118.33300018310547 0,118.33300018310547 C-65.35399627685547,118.33300018310547 -118.33300018310547,65.35399627685547 -118.33300018310547,0 C-118.33300018310547,-65.35399627685547 -65.35399627685547,-118.33300018310547 0,-118.33300018310547z M167.38099670410156,33.77899932861328 C167.38099670410156,33.77899932861328 157.6490020751953,28.15999984741211 157.6490020751953,28.15999984741211 C159.27099609375,19.01799964904785 160.11900329589844,9.607999801635742 160.11900329589844,0 C160.11900329589844,-9.607999801635742 159.27099609375,-19.01799964904785 157.6490020751953,-28.15999984741211 C157.6490020751953,-28.15999984741211 167.38099670410156,-33.77899932861328 167.38099670410156,-33.77899932861328 C179.27999877929688,-40.64899826049805 183.35699462890625,-55.86399841308594 176.48699951171875,-67.76300048828125 C176.48699951171875,-67.76300048828125 146.92799377441406,-118.95999908447266 146.92799377441406,-118.95999908447266 C140.05799865722656,-130.85800170898438 124.84300231933594,-134.93499755859375 112.94400024414062,-128.0659942626953 C112.94400024414062,-128.0659942626953 103.18199920654297,-122.43000030517578 103.18199920654297,-122.43000030517578 C88.86199951171875,-134.51100158691406 72.39900207519531,-144.1280059814453 54.4370002746582,-150.62100219726562 C54.4370002746582,-150.62100219726562 54.4370002746582,-161.84500122070312 54.4370002746582,-161.84500122070312 C54.4370002746582,-175.5850067138672 43.29899978637695,-186.72300720214844 29.55900001525879,-186.72300720214844 C29.55900001525879,-186.72300720214844 -29.55900001525879,-186.72300720214844 -29.55900001525879,-186.72300720214844 C-43.29899978637695,-186.72300720214844 -54.4370002746582,-175.5850067138672 -54.4370002746582,-161.84500122070312 C-54.4370002746582,-161.84500122070312 -54.4370002746582,-150.62100219726562 -54.4370002746582,-150.62100219726562 C-72.39900207519531,-144.1280059814453 -88.86199951171875,-134.51100158691406 -103.18199920654297,-122.43000030517578 C-103.18199920654297,-122.43000030517578 -112.94400024414062,-128.0659942626953 -112.94400024414062,-128.0659942626953 C-124.84300231933594,-134.93499755859375 -140.05799865722656,-130.85800170898438 -146.92799377441406,-118.95999908447266 C-146.92799377441406,-118.95999908447266 -176.48699951171875,-67.76300048828125 -176.48699951171875,-67.76300048828125 C-183.35699462890625,-55.86399841308594 -179.27999877929688,-40.64899826049805 -167.38099670410156,-33.77899932861328 C-167.38099670410156,-33.77899932861328 -157.6490020751953,-28.15999984741211 -157.6490020751953,-28.15999984741211 C-159.27099609375,-19.01799964904785 -160.11900329589844,-9.607999801635742 -160.11900329589844,0 C-160.11900329589844,9.607999801635742 -159.27099609375,19.01799964904785 -157.6490020751953,28.15999984741211 C-157.6490020751953,28.15999984741211 -167.38099670410156,33.77899932861328 -167.38099670410156,33.77899932861328 C-179.27999877929688,40.64899826049805 -183.35699462890625,55.86399841308594 -176.48699951171875,67.76300048828125 C-176.48699951171875,67.76300048828125 -146.92799377441406,118.95999908447266 -146.92799377441406,118.95999908447266 C-140.05799865722656,130.85899353027344 -124.84300231933594,134.93600463867188 -112.94400024414062,128.0659942626953 C-112.94400024414062,128.0659942626953 -103.18199920654297,122.43000030517578 -103.18199920654297,122.43000030517578 C-88.86199951171875,134.51100158691406 -72.39900207519531,144.1280059814453 -54.4370002746582,150.62100219726562 C-54.4370002746582,150.62100219726562 -54.4370002746582,161.84500122070312 -54.4370002746582,161.84500122070312 C-54.4370002746582,175.5850067138672 -43.29899978637695,186.72300720214844 -29.55900001525879,186.72300720214844 C-29.55900001525879,186.72300720214844 29.55900001525879,186.72300720214844 29.55900001525879,186.72300720214844 C43.29899978637695,186.72300720214844 54.4370002746582,175.5850067138672 54.4370002746582,161.84500122070312 C54.4370002746582,161.84500122070312 54.4370002746582,150.62100219726562 54.4370002746582,150.62100219726562 C72.39900207519531,144.1280059814453 88.86199951171875,134.51100158691406 103.18199920654297,122.43000030517578 C103.18199920654297,122.43000030517578 112.94400024414062,128.0659942626953 112.94400024414062,128.0659942626953 C124.84300231933594,134.93600463867188 140.05799865722656,130.85899353027344 146.92799377441406,118.95999908447266 C146.92799377441406,118.95999908447266 176.48699951171875,67.76300048828125 176.48699951171875,67.76300048828125 C183.35699462890625,55.86399841308594 179.27999877929688,40.64899826049805 167.38099670410156,33.77899932861328z"/><g opacity="1" transform="matrix(1,0,0,1,0,0)"/></g></g><mask id="__lottie_element_14_1" mask-type="alpha"><use xmlns:ns1="http://www.w3.org/1999/xlink" ns1:href="#__lottie_element_14"/></mask></defs><g clip-path="url(#__lottie_element_2)"><g clip-path="url(#__lottie_element_4)" transform="matrix(1,0,0,1,0,0)" opacity="1" style="display: block;"><g transform="matrix(-0.8999999761581421,0,0,-0.8999999761581421,215,215)" opacity="1" style="display: block;"><path class="primary" fill="rgb(58,51,71)" fill-opacity="1" d=" M0,-118.33300018310547 C65.35399627685547,-118.33300018310547 118.33300018310547,-65.35399627685547 118.33300018310547,0 C118.33300018310547,65.35399627685547 65.35399627685547,118.33300018310547 0,118.33300018310547 C-65.35399627685547,118.33300018310547 -118.33300018310547,65.35399627685547 -118.33300018310547,0 C-118.33300018310547,-65.35399627685547 -65.35399627685547,-118.33300018310547 0,-118.33300018310547z M167.38099670410156,33.77899932861328 C167.38099670410156,33.77899932861328 157.6490020751953,28.15999984741211 157.6490020751953,28.15999984741211 C159.27099609375,19.01799964904785 160.11900329589844,9.607999801635742 160.11900329589844,0 C160.11900329589844,-9.607999801635742 159.27099609375,-19.01799964904785 157.6490020751953,-28.15999984741211 C157.6490020751953,-28.15999984741211 167.38099670410156,-33.77899932861328 167.38099670410156,-33.77899932861328 C179.27999877929688,-40.64899826049805 183.35699462890625,-55.86399841308594 176.48699951171875,-67.76300048828125 C176.48699951171875,-67.76300048828125 146.92799377441406,-118.95999908447266 146.92799377441406,-118.95999908447266 C140.05799865722656,-130.85800170898438 124.84300231933594,-134.93499755859375 112.94400024414062,-128.0659942626953 C112.94400024414062,-128.0659942626953 103.18199920654297,-122.43000030517578 103.18199920654297,-122.43000030517578 C88.86199951171875,-134.51100158691406 72.39900207519531,-144.1280059814453 54.4370002746582,-150.62100219726562 C54.4370002746582,-150.62100219726562 54.4370002746582,-161.84500122070312 54.4370002746582,-161.84500122070312 C54.4370002746582,-175.5850067138672 43.29899978637695,-186.72300720214844 29.55900001525879,-186.72300720214844 C29.55900001525879,-186.72300720214844 -29.55900001525879,-186.72300720214844 -29.55900001525879,-186.72300720214844 C-43.29899978637695,-186.72300720214844 -54.4370002746582,-175.5850067138672 -54.4370002746582,-161.84500122070312 C-54.4370002746582,-161.84500122070312 -54.4370002746582,-150.62100219726562 -54.4370002746582,-150.62100219726562 C-72.39900207519531,-144.1280059814453 -88.86199951171875,-134.51100158691406 -103.18199920654297,-122.43000030517578 C-103.18199920654297,-122.43000030517578 -112.94400024414062,-128.0659942626953 -112.94400024414062,-128.0659942626953 C-124.84300231933594,-134.93499755859375 -140.05799865722656,-130.85800170898438 -146.92799377441406,-118.95999908447266 C-146.92799377441406,-118.95999908447266 -176.48699951171875,-67.76300048828125 -176.48699951171875,-67.76300048828125 C-183.35699462890625,-55.86399841308594 -179.27999877929688,-40.64899826049805 -167.38099670410156,-33.77899932861328 C-167.38099670410156,-33.77899932861328 -157.6490020751953,-28.15999984741211 -157.6490020751953,-28.15999984741211 C-159.27099609375,-19.01799964904785 -160.11900329589844,-9.607999801635742 -160.11900329589844,0 C-160.11900329589844,9.607999801635742 -159.27099609375,19.01799964904785 -157.6490020751953,28.15999984741211 C-157.6490020751953,28.15999984741211 -167.38099670410156,33.77899932861328 -167.38099670410156,33.77899932861328 C-179.27999877929688,40.64899826049805 -183.35699462890625,55.86399841308594 -176.48699951171875,67.76300048828125 C-176.48699951171875,67.76300048828125 -146.92799377441406,118.95999908447266 -146.92799377441406,118.95999908447266 C-140.05799865722656,130.85899353027344 -124.84300231933594,134.93600463867188 -112.94400024414062,128.0659942626953 C-112.94400024414062,128.0659942626953 -103.18199920654297,122.43000030517578 -103.18199920654297,122.43000030517578 C-88.86199951171875,134.51100158691406 -72.39900207519531,144.1280059814453 -54.4370002746582,150.62100219726562 C-54.4370002746582,150.62100219726562 -54.4370002746582,161.84500122070312 -54.4370002746582,161.84500122070312 C-54.4370002746582,175.5850067138672 -43.29899978637695,186.72300720214844 -29.55900001525879,186.72300720214844 C-29.55900001525879,186.72300720214844 29.55900001525879,186.72300720214844 29.55900001525879,186.72300720214844 C43.29899978637695,186.72300720214844 54.4370002746582,175.5850067138672 54.4370002746582,161.84500122070312 C54.4370002746582,161.84500122070312 54.4370002746582,150.62100219726562 54.4370002746582,150.62100219726562 C72.39900207519531,144.1280059814453 88.86199951171875,134.51100158691406 103.18199920654297,122.43000030517578 C103.18199920654297,122.43000030517578 112.94400024414062,128.0659942626953 112.94400024414062,128.0659942626953 C124.84300231933594,134.93600463867188 140.05799865722656,130.85899353027344 146.92799377441406,118.95999908447266 C146.92799377441406,118.95999908447266 176.48699951171875,67.76300048828125 176.48699951171875,67.76300048828125 C183.35699462890625,55.86399841308594 179.27999877929688,40.64899826049805 167.38099670410156,33.77899932861328z"/><g opacity="1" transform="matrix(1,0,0,1,0,0)"/></g><g mask="url(#__lottie_element_14_1)" style="display: block;"><g transform="matrix(1,0,0,1,97,9)" opacity="1"><g opacity="1" transform="matrix(1,0,0,1,66.25,116.25)"><path class="primary" fill="rgb(58,51,71)" fill-opacity="1" d=" M51.75,-99.75 C51.75,-99.75 51.5,322.75 51.5,322.75 C51.5,322.75 -187.5,322.5 -187.5,322.5 C-187.5,322.5 -187.25,-100 -187.25,-100 C-187.25,-100 51.75,-99.75 51.75,-99.75z"/><path class="primary" fill="rgb(58,51,71)" fill-opacity="0.5" d=" M51.75,-99.75 C51.75,-99.75 51.5,322.75 51.5,322.75 C51.5,322.75 -187.5,322.5 -187.5,322.5 C-187.5,322.5 -187.25,-100 -187.25,-100 C-187.25,-100 51.75,-99.75 51.75,-99.75z" style="mix-blend-mode: multiply;"/></g></g></g><g transform="matrix(1,0,0,1,-35,-35)" opacity="1" style="display: block;"><g opacity="1" transform="matrix(1,0,0,1,268.5220031738281,250)"><path stroke-linecap="round" stroke-linejoin="round" fill-opacity="0" class="secondary" stroke="rgb(242,76,0)" stroke-opacity="1" stroke-width="7" d=" M-18.55299949645996,26.68600082397461 C-18.55299949645996,26.68600082397461 -18.55299949645996,-26.684999465942383 -18.55299949645996,-26.684999465942383 C-18.55299949645996,-26.684999465942383 -18.551000595092773,-26.68600082397461 -18.551000595092773,-26.68600082397461 C-18.551000595092773,-26.68600082397461 1.4220000505447388,-26.68600082397461 1.4220000505447388,-26.68600082397461 C10.883000373840332,-26.68600082397461 18.55299949645996,-19.016000747680664 18.55299949645996,-9.555000305175781 C18.55299949645996,-9.555000305175781 18.55299949645996,-9.555000305175781 18.55299949645996,-9.555000305175781 C18.55299949645996,-0.09399999678134918 10.883000373840332,7.576000213623047 1.4220000505447388,7.576000213623047 C1.4220000505447388,7.576000213623047 -18.551000595092773,7.576000213623047 -18.551000595092773,7.576000213623047"/></g><g opacity="1" transform="matrix(1,0,0,1,310.2619934082031,250.0489959716797)"><path stroke-linecap="round" stroke-linejoin="round" fill-opacity="0" class="secondary" stroke="rgb(242,76,0)" stroke-opacity="1" stroke-width="7" d=" M0,26.63800048828125 C0,26.63800048828125 0,-26.63800048828125 0,-26.63800048828125"/></g><g opacity="1" transform="matrix(1,0,0,1,0,0)"><g opacity="1" transform="matrix(1,0,0,1,204.56100463867188,250)"><path stroke-linecap="round" stroke-linejoin="round" fill-opacity="0" class="secondary" stroke="rgb(242,76,0)" stroke-opacity="1" stroke-width="7" d=" M22.572999954223633,26.687000274658203 C22.572999954223633,26.687000274658203 8.914999961853027,-26.687000274658203 8.914999961853027,-26.687000274658203 C8.914999961853027,-26.687000274658203 -7.239999771118164,-26.687000274658203 -7.239999771118164,-26.687000274658203 C-7.239999771118164,-26.687000274658203 -22.572999954223633,26.687000274658203 -22.572999954223633,26.687000274658203"/></g><g opacity="1" transform="matrix(1,0,0,1,204.75799560546875,264.1520080566406)"><path stroke-linecap="round" stroke-linejoin="round" fill-opacity="0" class="secondary" stroke="rgb(242,76,0)" stroke-opacity="1" stroke-width="7" d=" M-18.889999389648438,0 C-18.889999389648438,0 18.889999389648438,0 18.889999389648438,0"/></g></g></g></g></g></svg>